<svg width="800" height="800" viewBox="0 0 800 800" fill="none" xmlns="http://www.w3.org/2000/svg">
<g clip-path="url(#clip0_101_30)">
<path d="M470.937 447.969H328.594C315.156 447.969 304.375 458.75 304.375 472.031C304.375 485.156 315.156 496.094 328.594 496.094H470.937C484.219 496.094 495 485.156 495 472.031C495 458.75 484.219 447.969 470.937 447.969Z" fill="white"/>
<path d="M328.594 351.562H398.594C412.031 351.562 422.813 340.625 422.813 327.344C422.813 314.062 412.031 303.281 398.594 303.281H328.594C315.156 303.281 304.375 314.062 304.375 327.344C304.375 340.625 315.312 351.562 328.594 351.562Z" fill="white"/>
<path d="M400 0C179.063 0 0 179.063 0 400C0 620.937 179.063 800 400 800C620.937 800 800 620.937 800 400C800 179.063 620.937 0 400 0ZM598.438 473.906C597.969 543.281 541.563 600 472.188 600H327.031C257.5 600 200.781 543.125 200.781 473.906V326.406C200.781 256.875 257.656 200 327.031 200H415.469C448.125 203.906 495.469 231.875 512.969 268.906C517.812 279.375 520.312 280.938 524.375 311.875C526.562 327.812 527.5 339.531 534.688 346.094C544.844 355.156 581.875 349.062 589.219 354.844L594.844 359.219L598.125 366.094L599.375 371.719L598.438 473.906Z" fill="white"/>
</g>
<defs>
<clipPath id="clip0_101_30">
<rect width="800" height="800" fill="white"/>
</clipPath>
</defs>
</svg>
